<?xml version="1.0" encoding="UTF-8"?>
<svg width="512" height="512" viewBox="0 0 24 24" fill="none" xmlns="http://www.w3.org/2000/svg">
  <path d="M12 3V4M12 20V21M21 12H20M4 12H3M18.364 5.636L17.657 6.343M6.343 17.657L5.636 18.364M18.364 18.364L17.657 17.657M6.343 6.343L5.636 5.636" stroke="#0EA5E9" stroke-width="2" stroke-linecap="round"/>
  <circle cx="12" cy="12" r="4" fill="#0EA5E9"/>
  <path d="M12 16C14.2091 16 16 14.2091 16 12C16 9.79086 14.2091 8 12 8C9.79086 8 8 9.79086 8 12C8 14.2091 9.79086 16 12 16Z" fill="#0EA5E9"/>
  <defs>
    <linearGradient id="paint0_linear" x1="12" y1="3" x2="12" y2="21" gradientUnits="userSpaceOnUse">
      <stop stop-color="#0EA5E9"/>
      <stop offset="1" stop-color="#38BDF8"/>
    </linearGradient>
  </defs>
</svg> 